<svg xmlns="http://www.w3.org/2000/svg" version="1.1" xmlns:xlink="http://www.w3.org/1999/xlink" xmlns:svgjs="http://svgjs.dev/svgjs" width="1000" height="348" viewBox="0 0 1000 348"><g transform="matrix(1,0,0,1,-0.6060383522876123,-0.4789427718016839)"><svg viewBox="0 0 396 138" data-background-color="#0074d9" preserveAspectRatio="xMidYMid meet" height="348" width="1000" xmlns="http://www.w3.org/2000/svg" xmlns:xlink="http://www.w3.org/1999/xlink"><g id="tight-bounds" transform="matrix(1,0,0,1,0.23999118750589332,0.1899255819213579)"><svg viewBox="0 0 395.52 137.62014883615728" height="137.62014883615728" width="395.52"><g><svg viewBox="0 0 395.52 137.62014883615728" height="137.62014883615728" width="395.52"><g transform="matrix(1,0,0,1,0,85.05477302729716)"><svg viewBox="0 0 395.52 52.565375808860125" height="52.565375808860125" width="395.52"><g id="textblocktransform"><svg viewBox="0 0 395.52 52.565375808860125" height="52.565375808860125" width="395.52" id="textblock"><g><svg viewBox="0 0 395.52 52.565375808860125" height="52.565375808860125" width="395.52"><g transform="matrix(1,0,0,1,0,0)"><svg width="395.52" viewBox="0.75 -39.54999923706055 301.3299865722656 40.04999923706055" height="52.565375808860125" data-palette-color="#ffffff"><path d="M16.35 0L16.35 0Q15.55 0 14.98-0.58 14.4-1.15 14.4-1.95L14.4-1.95 14.4-39.05 18.3-39.05 18.3-1.95Q18.3-1.15 17.75-0.58 17.2 0 16.35 0ZM30.2-35.5L2.55-35.5Q1.75-35.5 1.25-36 0.75-36.5 0.75-37.25L0.75-37.25Q0.75-38.05 1.25-38.55 1.75-39.05 2.55-39.05L2.55-39.05 30.2-39.05Q31-39.05 31.5-38.55 32-38.05 32-37.25L32-37.25Q32-36.5 31.5-36 31-35.5 30.2-35.5L30.2-35.5ZM39.7 0L39.7 0Q38.85 0 38.3-0.55 37.75-1.1 37.75-1.95L37.75-1.95 37.75-37.1Q37.75-37.95 38.3-38.5 38.85-39.05 39.7-39.05L39.7-39.05 49.05-39.05Q52.7-39.05 55.55-37.52 58.4-36 60.02-33.27 61.65-30.55 61.65-27L61.65-27Q61.65-23.6 60.02-20.95 58.4-18.3 55.55-16.8 52.7-15.3 49.05-15.3L49.05-15.3 41.65-15.3 41.65-1.95Q41.65-1.1 41.1-0.55 40.55 0 39.7 0ZM60.6 0L60.6 0Q59.95 0 59.57-0.25 59.2-0.5 58.9-1L58.9-1 49.3-16.3 53.2-17.3 62.15-3Q62.9-1.8 62.42-0.9 61.95 0 60.6 0ZM41.65-35.3L41.65-19.05 49.05-19.05Q51.6-19.05 53.57-20.08 55.55-21.1 56.7-22.9 57.85-24.7 57.85-27L57.85-27Q57.85-29.45 56.7-31.33 55.55-33.2 53.57-34.25 51.6-35.3 49.05-35.3L49.05-35.3 41.65-35.3ZM67.85 0L67.85 0Q67 0 66.52-0.5 66.05-1 66-1.75 65.95-2.5 66.45-3.15L66.45-3.15 79.5-20.95 81.3-22.4 93-38.35Q93.55-39.05 94.5-39.05L94.5-39.05Q95.3-39.05 95.77-38.53 96.25-38 96.3-37.27 96.35-36.55 95.95-36L95.95-36 83.65-19.3 81.95-17.9 69.25-0.6Q68.7 0 67.85 0ZM94.9 0L94.9 0Q94.5 0 94.1-0.18 93.7-0.35 93.4-0.7L93.4-0.7 80.95-17.95 79.4-19.1 67.25-36Q66.8-36.6 66.85-37.33 66.9-38.05 67.37-38.55 67.85-39.05 68.65-39.05L68.65-39.05Q69.6-39.05 70.15-38.35L70.15-38.35 81.9-22.1 83.3-21.15 96.3-3.15Q96.75-2.55 96.72-1.8 96.7-1.05 96.22-0.53 95.75 0 94.9 0ZM126.99 0L126.99 0Q126.29 0 125.77-0.45 125.24-0.9 125.04-1.6L125.04-1.6 114.79-36.25Q114.44-37.45 114.92-38.25 115.39-39.05 116.44-39.05L116.44-39.05Q117.04-39.05 117.57-38.73 118.09-38.4 118.34-37.55L118.34-37.55 127.59-5.35 126.44-5.35 135.19-36.7Q135.34-37.25 135.87-37.6 136.39-37.95 137.04-37.95L137.04-37.95Q137.64-37.95 138.19-37.63 138.74-37.3 138.89-36.65L138.89-36.65 147.69-5.35 146.54-5.35 155.84-37.75Q156.19-39.05 157.74-39.05L157.74-39.05Q158.79-39.05 159.19-38.23 159.59-37.4 159.29-36.25L159.29-36.25 149.09-1.65Q148.84-0.85 148.32-0.43 147.79 0 147.09 0L147.09 0Q146.39 0 145.87-0.45 145.34-0.9 145.14-1.6L145.14-1.6 136.44-33.35 137.64-33.35 128.99-1.65Q128.74-0.9 128.22-0.45 127.69 0 126.99 0ZM181.09 0.5L181.09 0.5Q176.74 0.5 173.09-1 169.44-2.5 166.76-5.2 164.09-7.9 162.61-11.55 161.14-15.2 161.14-19.55L161.14-19.55Q161.14-23.85 162.61-27.5 164.09-31.15 166.76-33.85 169.44-36.55 173.09-38.05 176.74-39.55 181.09-39.55L181.09-39.55Q185.39-39.55 189.04-38.05 192.69-36.55 195.39-33.85 198.09-31.15 199.56-27.5 201.04-23.85 201.04-19.55L201.04-19.55Q201.04-15.2 199.56-11.55 198.09-7.9 195.39-5.2 192.69-2.5 189.04-1 185.39 0.5 181.09 0.5ZM181.09-3.2L181.09-3.2Q184.54-3.2 187.49-4.42 190.44-5.65 192.61-7.88 194.79-10.1 195.99-13.08 197.19-16.05 197.19-19.55L197.19-19.55Q197.19-23 195.99-25.98 194.79-28.95 192.61-31.18 190.44-33.4 187.49-34.63 184.54-35.85 181.09-35.85L181.09-35.85Q177.59-35.85 174.64-34.63 171.69-33.4 169.51-31.18 167.34-28.95 166.14-25.98 164.94-23 164.94-19.55L164.94-19.55Q164.94-16.05 166.14-13.08 167.34-10.1 169.51-7.88 171.69-5.65 174.64-4.42 177.59-3.2 181.09-3.2ZM211.04 0L211.04 0Q210.19 0 209.64-0.55 209.09-1.1 209.09-1.95L209.09-1.95 209.09-37.1Q209.09-37.95 209.64-38.5 210.19-39.05 211.04-39.05L211.04-39.05 220.39-39.05Q224.04-39.05 226.89-37.52 229.74-36 231.36-33.27 232.99-30.55 232.99-27L232.99-27Q232.99-23.6 231.36-20.95 229.74-18.3 226.89-16.8 224.04-15.3 220.39-15.3L220.39-15.3 212.99-15.3 212.99-1.95Q212.99-1.1 212.44-0.55 211.89 0 211.04 0ZM231.94 0L231.94 0Q231.29 0 230.91-0.25 230.54-0.5 230.24-1L230.24-1 220.64-16.3 224.54-17.3 233.49-3Q234.24-1.8 233.76-0.9 233.29 0 231.94 0ZM212.99-35.3L212.99-19.05 220.39-19.05Q222.94-19.05 224.91-20.08 226.89-21.1 228.04-22.9 229.19-24.7 229.19-27L229.19-27Q229.19-29.45 228.04-31.33 226.89-33.2 224.91-34.25 222.94-35.3 220.39-35.3L220.39-35.3 212.99-35.3ZM263.43 0L241.93 0Q241.13 0 240.56-0.55 239.98-1.1 239.98-1.95L239.98-1.95 239.98-37.1Q239.98-37.9 240.56-38.48 241.13-39.05 241.93-39.05L241.93-39.05Q242.73-39.05 243.31-38.48 243.88-37.9 243.88-37.1L243.88-37.1 243.88-3.7 263.43-3.7Q264.23-3.7 264.81-3.18 265.38-2.65 265.38-1.85L265.38-1.85Q265.38-1.05 264.81-0.53 264.23 0 263.43 0L263.43 0ZM282.58 0L273.58 0Q272.73 0 272.18-0.55 271.63-1.1 271.63-1.95L271.63-1.95 271.63-37.1Q271.63-37.95 272.18-38.5 272.73-39.05 273.58-39.05L273.58-39.05 282.58-39.05Q286.88-39.05 290.46-37.63 294.03-36.2 296.63-33.58 299.23-30.95 300.66-27.4 302.08-23.85 302.08-19.55L302.08-19.55Q302.08-15.25 300.66-11.68 299.23-8.1 296.63-5.48 294.03-2.85 290.46-1.43 286.88 0 282.58 0L282.58 0ZM275.53-35.55L275.53-3.5 282.58-3.5Q287.18-3.5 290.71-5.58 294.23-7.65 296.23-11.28 298.23-14.9 298.23-19.55L298.23-19.55Q298.23-24.2 296.23-27.83 294.23-31.45 290.71-33.5 287.18-35.55 282.58-35.55L282.58-35.55 275.53-35.55Z" opacity="1" transform="matrix(1,0,0,1,0,0)" fill="#ffffff" class="undefined-text-0" data-fill-palette-color="primary" id="text-0"></path></svg></g></svg></g></svg></g></svg></g><g transform="matrix(1,0,0,1,153.43719746030365,0)"><svg viewBox="0 0 88.64560507939265 72.6453493678447" height="72.6453493678447" width="88.64560507939265"><g><svg xmlns="http://www.w3.org/2000/svg" xmlns:xlink="http://www.w3.org/1999/xlink" version="1.1" x="8" y="0" viewBox="7.734947204589844 7.735245704650879 84.53054809570312 84.5302505493164" enable-background="new 0 0 100 100" xml:space="preserve" height="72.6453493678447" width="72.64560507939265" class="icon-icon-0" data-fill-palette-color="accent" id="icon-0"><g fill="#ffffff" data-fill-palette-color="accent"><g fill="#ffffff" data-fill-palette-color="accent"><g fill="#ffffff" data-fill-palette-color="accent"><path d="M28.368 14.767C42.162 16.327 48.04 25.762 49.69 30.695c1.07 3.198 1.472 5.094 1.472 9.275 0 0.817 0.044 2.076-1.054 2.216-0.77 0.099-1.209-0.509-1.273-1.182-0.289-3.026-1.159-6.569-4.008-9.85-2.253-2.594-7.472-7.802-16.652-7.021-2.669 0.228-5.052-1.868-5.129-4.564C22.964 16.703 25.531 14.446 28.368 14.767z" fill="#ffffff" data-fill-palette-color="accent"></path><path d="M71.633 85.232c-13.794-1.561-19.671-10.995-21.322-15.929-1.07-3.198-1.472-5.094-1.472-9.275 0-0.817-0.044-2.076 1.054-2.216 0.77-0.099 1.209 0.509 1.273 1.182 0.289 3.026 1.159 6.569 4.008 9.85 2.253 2.594 7.472 7.802 16.652 7.021 2.669-0.228 5.052 1.868 5.129 4.564C77.037 83.296 74.47 85.553 71.633 85.232z" fill="#ffffff" data-fill-palette-color="accent"></path></g><g fill="#ffffff" data-fill-palette-color="accent"><path d="M14.768 71.633c1.56-13.794 10.995-19.672 15.928-21.322 3.198-1.07 5.094-1.472 9.276-1.472 0.817 0 2.076-0.045 2.216 1.054 0.098 0.77-0.509 1.209-1.182 1.273-3.026 0.288-6.569 1.159-9.849 4.008-2.594 2.254-7.802 7.473-7.021 16.652 0.228 2.669-1.868 5.052-4.564 5.129C16.704 77.036 14.447 74.47 14.768 71.633z" fill="#ffffff" data-fill-palette-color="accent"></path><path d="M85.233 28.367c-1.56 13.794-10.995 19.672-15.928 21.322-3.198 1.07-5.094 1.472-9.276 1.472-0.817 0-2.076 0.045-2.216-1.054-0.098-0.77 0.509-1.209 1.182-1.273 3.026-0.288 6.569-1.159 9.849-4.008 2.594-2.254 7.802-7.473 7.021-16.652-0.228-2.669 1.868-5.052 4.564-5.129C83.297 22.964 85.554 25.53 85.233 28.367z" fill="#ffffff" data-fill-palette-color="accent"></path></g></g><g fill="#ffffff" data-fill-palette-color="accent"><g fill="#ffffff" data-fill-palette-color="accent"><path d="M13.65 30.304c12.726-5.546 22.533-0.314 26.43 3.133 2.526 2.234 3.821 3.676 5.912 7.297 0.409 0.708 1.077 1.775 0.195 2.446-0.617 0.47-1.302 0.164-1.693-0.387-1.763-2.477-4.289-5.109-8.396-6.525-3.249-1.12-10.373-3.021-17.931 2.246-2.198 1.531-5.309 0.907-6.724-1.389C9.938 34.682 11.033 31.444 13.65 30.304z" fill="#ffffff" data-fill-palette-color="accent"></path><path d="M86.351 69.695c-12.726 5.546-22.533 0.314-26.43-3.133-2.526-2.234-3.821-3.676-5.912-7.297-0.409-0.708-1.077-1.775-0.196-2.446 0.618-0.47 1.302-0.164 1.694 0.387 1.763 2.477 4.289 5.109 8.396 6.525 3.249 1.12 10.373 3.021 17.931-2.245 2.198-1.532 5.309-0.908 6.724 1.388C90.063 65.317 88.968 68.555 86.351 69.695z" fill="#ffffff" data-fill-palette-color="accent"></path></g><g fill="#ffffff" data-fill-palette-color="accent"><path d="M30.304 86.351c-5.546-12.726-0.314-22.533 3.133-26.43 2.235-2.525 3.676-3.821 7.298-5.912 0.708-0.409 1.775-1.076 2.445-0.195 0.47 0.617 0.164 1.302-0.387 1.693-2.477 1.764-5.109 4.289-6.525 8.396-1.12 3.248-3.021 10.372 2.246 17.931 1.531 2.198 0.908 5.31-1.389 6.725C34.683 90.062 31.445 88.968 30.304 86.351z" fill="#ffffff" data-fill-palette-color="accent"></path><path d="M69.696 13.649c5.546 12.726 0.314 22.533-3.133 26.43-2.234 2.526-3.675 3.821-7.297 5.913-0.708 0.408-1.775 1.076-2.446 0.195-0.47-0.618-0.163-1.303 0.388-1.694 2.477-1.763 5.109-4.288 6.525-8.396 1.12-3.249 3.021-10.372-2.246-17.932-1.532-2.198-0.908-5.309 1.388-6.724C65.318 9.938 68.556 11.032 69.696 13.649z" fill="#ffffff" data-fill-palette-color="accent"></path></g></g><g fill="#ffffff" data-fill-palette-color="accent"><g fill="#ffffff" data-fill-palette-color="accent"><path d="M8.671 51.118c8.248-11.166 19.357-11.539 24.456-10.502 3.305 0.672 5.147 1.272 8.769 3.363 0.708 0.408 1.82 0.999 1.392 2.021-0.299 0.716-1.045 0.793-1.66 0.512-2.765-1.263-6.269-2.28-10.533-1.453-3.374 0.654-10.494 2.57-14.406 10.911-1.138 2.425-4.144 3.44-6.518 2.159C7.646 56.766 6.976 53.414 8.671 51.118z" fill="#ffffff" data-fill-palette-color="accent"></path><path d="M91.329 48.882C83.081 60.047 71.971 60.42 66.874 59.383c-3.305-0.672-5.147-1.272-8.769-3.363-0.708-0.408-1.82-0.999-1.393-2.021 0.3-0.716 1.046-0.793 1.66-0.512 2.766 1.264 6.269 2.28 10.534 1.453 3.373-0.654 10.493-2.569 14.406-10.91 1.138-2.426 4.144-3.441 6.517-2.16C92.354 43.233 93.025 46.585 91.329 48.882z" fill="#ffffff" data-fill-palette-color="accent"></path></g><g fill="#ffffff" data-fill-palette-color="accent"><path d="M51.119 91.329C39.953 83.081 39.58 71.972 40.617 66.874c0.673-3.305 1.272-5.147 3.364-8.77 0.409-0.708 1-1.819 2.02-1.392 0.716 0.3 0.793 1.045 0.512 1.66-1.263 2.765-2.28 6.269-1.453 10.533 0.654 3.374 2.57 10.493 10.911 14.406 2.425 1.138 3.44 4.144 2.159 6.518C56.766 92.354 53.415 93.025 51.119 91.329z" fill="#ffffff" data-fill-palette-color="accent"></path><path d="M48.882 8.672c11.166 8.247 11.538 19.356 10.501 24.455-0.672 3.305-1.271 5.147-3.362 8.77-0.409 0.707-1 1.819-2.021 1.392-0.716-0.3-0.792-1.046-0.511-1.661 1.263-2.765 2.28-6.268 1.453-10.533-0.655-3.373-2.57-10.492-10.911-14.406-2.426-1.137-3.44-4.144-2.159-6.517C43.234 7.646 46.585 6.976 48.882 8.672z" fill="#ffffff" data-fill-palette-color="accent"></path></g></g></g></svg></g></svg></g><g><rect width="153.43719746030365" height="4.740399837910841" y="66.90494952993386" x="242.0828025396963" fill="#ffffff" data-fill-palette-color="accent"></rect><rect width="153.43719746030365" height="4.740399837910841" y="66.90494952993386" x="0" fill="#ffffff" data-fill-palette-color="accent"></rect><rect width="153.43719746030365" height="4.740399837910841" y="57.42414985411218" x="242.0828025396963" fill="#ffffff" data-fill-palette-color="accent"></rect><rect width="153.43719746030365" height="4.740399837910841" y="57.42414985411218" x="0" fill="#ffffff" data-fill-palette-color="accent"></rect></g></svg></g><defs></defs></svg><rect width="395.52" height="137.62014883615728" fill="none" stroke="none" visibility="hidden"></rect></g></svg></g></svg>